<svg width="61" height="61" viewBox="0 0 61 61" fill="none" xmlns="http://www.w3.org/2000/svg">
<path d="M49.6285 60.9592H11.3307C4.98551 60.9592 0 55.9737 0 49.6285V11.3307C0 4.98551 4.98551 0 11.3307 0H49.6285C55.9736 0 60.9591 4.98551 60.9591 11.3307V49.6285C60.9591 55.9737 55.747 60.9592 49.6285 60.9592Z" fill="url(#paint0_linear_433_151)"/>
<path fill-rule="evenodd" clip-rule="evenodd" d="M22.1079 15.0729C21.7605 15.1944 21.4572 15.4035 21.2765 15.6459C20.9979 16.0199 20.9381 16.3304 20.9381 17.4045V18.3915L19.6101 18.3921C18.3473 18.3926 18.2665 18.3994 17.966 18.5306C17.7923 18.6065 17.5477 18.7808 17.4226 18.9179C17.0419 19.3349 17.0008 19.5353 17.0008 20.9727C17.0008 22.1699 17.0084 22.2527 17.1304 22.3982C17.3095 22.6118 17.6296 22.6118 17.8087 22.3982C17.9304 22.2531 17.9383 22.1693 17.9383 21.018C17.9383 19.2228 17.8896 19.2706 19.7163 19.2706H20.9381V19.6995C20.9381 20.5158 21.2667 21.0806 21.9033 21.3586C22.5043 21.621 23.3096 21.509 23.7719 21.0986C24.1056 20.8025 24.2658 20.412 24.2995 19.8127L24.33 19.2706H26.0714H27.8128V19.6995C27.8128 20.2578 27.9423 20.6512 28.2297 20.9661C29.0178 21.8295 30.5583 21.6136 31.0382 20.5725C31.0935 20.4524 31.1533 20.1119 31.1715 19.8127L31.2047 19.2706H32.9375H34.6704L34.7035 19.8127C34.7217 20.1119 34.7815 20.4524 34.8368 20.5725C35.3167 21.6136 36.8572 21.8295 37.6453 20.9661C37.9328 20.6512 38.0622 20.2578 38.0622 19.6995V19.2706H39.2841C40.2539 19.2706 40.5436 19.289 40.6892 19.3595C41.0881 19.553 41.0621 18.8755 41.0621 29.0742V38.3561L41.2067 38.4836C41.3989 38.6528 41.6895 38.6492 41.8637 38.4754L41.9995 38.3397V29.0207C41.9995 18.668 42.0307 19.414 41.5778 18.9179C41.4526 18.7808 41.2081 18.6065 41.0343 18.5306C40.734 18.3995 40.6529 18.3926 39.3952 18.3921L38.072 18.3915L38.0515 17.2926C38.0286 16.0674 37.9716 15.8541 37.5651 15.4729C37.21 15.1398 36.9035 15.0243 36.3748 15.0243C35.8462 15.0243 35.5397 15.1398 35.1845 15.4729C34.778 15.8541 34.721 16.0674 34.6982 17.2926L34.6777 18.3915H32.9375H31.1973L31.1768 17.2926C31.154 16.0674 31.097 15.8541 30.6905 15.4729C30.3353 15.1398 30.0288 15.0243 29.5002 15.0243C28.9715 15.0243 28.665 15.1398 28.3099 15.4729C27.9034 15.8541 27.8464 16.0674 27.8235 17.2926L27.803 18.3915H26.0629H24.3227L24.3022 17.2926C24.2793 16.0674 24.2223 15.8541 23.8159 15.4729C23.3797 15.0639 22.6335 14.8891 22.1079 15.0729ZM22.9361 15.9464C23.021 15.9867 23.1546 16.1089 23.233 16.2179C23.3737 16.4137 23.3755 16.4391 23.3755 18.2262C23.3755 20.1851 23.3549 20.3267 23.0425 20.5187C22.8138 20.6592 22.3709 20.6488 22.1667 20.4982C21.891 20.2948 21.8664 20.0848 21.8873 18.1178L21.9068 16.2909L22.0631 16.1334C22.3216 15.8727 22.638 15.8049 22.9361 15.9464ZM29.8108 15.9464C29.8957 15.9867 30.0293 16.1089 30.1077 16.2179C30.2483 16.4137 30.2501 16.4391 30.2501 18.2262C30.2501 20.1851 30.2296 20.3267 29.9172 20.5187C29.711 20.6454 29.2598 20.6477 29.07 20.523C28.7725 20.3276 28.7502 20.1678 28.7502 18.2262C28.7502 16.4391 28.752 16.4137 28.8927 16.2179C29.1265 15.8926 29.4782 15.7886 29.8108 15.9464ZM36.6854 15.9464C36.7703 15.9867 36.9039 16.1089 36.9823 16.2179C37.123 16.4137 37.1248 16.4391 37.1248 18.2262C37.1248 20.1678 37.1025 20.3276 36.805 20.523C36.6152 20.6477 36.164 20.6454 35.9579 20.5187C35.6454 20.3267 35.6249 20.1851 35.6249 18.2262C35.6249 16.4391 35.6267 16.4137 35.7674 16.2179C36.0012 15.8926 36.3529 15.7886 36.6854 15.9464ZM17.2705 23.7825C17.1954 23.8116 17.104 23.8879 17.0674 23.952C17.0211 24.0333 17.0008 27.0495 17.0008 33.8788C17.0008 44.9536 16.9576 44.0265 17.4978 44.5331C18.0391 45.0407 16.9696 44.9992 29.5002 44.9992C42.0307 44.9992 40.9613 45.0407 41.5026 44.5331C41.9781 44.0871 41.9995 43.974 41.9995 41.908C41.9995 40.8584 41.9744 40.083 41.9384 40.0199C41.7938 39.7666 41.2095 39.7843 41.1027 40.0452C41.0803 40.0997 41.0621 40.9215 41.0621 41.8714C41.0621 43.3004 41.0457 43.6281 40.9673 43.7704C40.7604 44.1455 41.5948 44.1201 29.5002 44.1201C19.7851 44.1201 18.4731 44.1096 18.3112 44.0312C17.9117 43.8374 17.9383 44.5656 17.9383 33.8146C17.9383 24.582 17.9321 24.024 17.8289 23.9096C17.698 23.7644 17.4582 23.7099 17.2705 23.7825ZM24.8425 23.8395C24.7729 23.8657 24.1431 24.5368 23.4429 25.331C22.7427 26.125 22.1549 26.7607 22.1366 26.7436C22.1184 26.7265 21.9608 26.5084 21.7864 26.2589C21.4952 25.8422 21.4505 25.8039 21.2385 25.7873C20.9587 25.7655 20.7506 25.9299 20.7506 26.1727C20.7506 26.2728 20.9455 26.6341 21.2587 27.1148C21.8107 27.9621 21.9511 28.077 22.2594 27.9338C22.4004 27.8682 23.3492 26.8333 25.0435 24.8969C25.5096 24.3643 25.5652 24.209 25.3643 24.0015C25.1953 23.8267 25.0206 23.7725 24.8425 23.8395ZM26.9999 25.4791C25.6878 25.8534 25.4995 27.4661 26.7021 28.0281L27.0249 28.1789H32.2394C36.1662 28.1789 37.5176 28.1612 37.7113 28.1073C38.0495 28.0131 38.5103 27.5809 38.6108 27.2637C38.789 26.7012 38.595 26.0567 38.1524 25.7402C37.7051 25.4202 37.7758 25.424 32.2557 25.4294C29.4512 25.4322 27.0861 25.4546 26.9999 25.4791ZM37.457 26.3716C37.7871 26.5366 37.8543 26.9141 37.5963 27.1559L37.443 27.2998H32.2897H27.1364L26.9691 27.1133C26.8393 26.9686 26.8101 26.8878 26.8389 26.7526C26.8829 26.5465 26.9799 26.4256 27.1544 26.3593C27.3654 26.279 37.2956 26.2911 37.457 26.3716ZM24.8425 29.6416C24.7729 29.6678 24.1431 30.3389 23.4429 31.1331C22.7427 31.9271 22.1549 32.5628 22.1366 32.5457C22.1184 32.5286 21.9608 32.3105 21.7864 32.0611C21.4952 31.6444 21.4505 31.606 21.2385 31.5894C20.9587 31.5676 20.7506 31.732 20.7506 31.9748C20.7506 32.0749 20.9455 32.4362 21.2587 32.9169C21.8111 33.7648 21.9505 33.8788 22.2609 33.7359C22.3969 33.6733 23.5477 32.4142 25.1985 30.5218C25.5094 30.1654 25.5489 29.9943 25.3643 29.8036C25.1953 29.6289 25.0206 29.5746 24.8425 29.6416ZM27.1566 31.2656C26.6161 31.383 26.2665 31.6131 26.0667 31.9828C25.6924 32.6755 25.9911 33.5368 26.7166 33.8565C26.9976 33.9804 27.0248 33.981 32.2962 33.9797C37.3233 33.9785 37.6063 33.9729 37.8435 33.8697C38.3656 33.6425 38.6883 33.1639 38.6858 32.6203C38.6835 32.0897 38.3946 31.6565 37.867 31.3926L37.5935 31.2558L32.4375 31.2471C29.6017 31.2424 27.2253 31.2506 27.1566 31.2656ZM37.599 32.2994C37.796 32.5142 37.795 32.7718 37.5963 32.958L37.443 33.1019H32.2841C27.2308 33.1019 27.1228 33.0996 27.0019 32.9862C26.8381 32.8326 26.7912 32.6353 26.8714 32.4377C27.008 32.1007 26.8824 32.1079 32.3961 32.122L37.4482 32.1349L37.599 32.2994ZM24.8248 35.4862C24.7798 35.5031 24.178 36.1537 23.4874 36.9321C22.7968 37.7104 22.2122 38.3683 22.1882 38.394C22.1642 38.4197 22.0079 38.2302 21.8409 37.9729C21.4536 37.3765 21.2355 37.2655 20.9153 37.5017C20.644 37.7019 20.6929 37.896 21.2165 38.6964C21.7673 39.5383 21.8528 39.6221 22.1353 39.5968C22.3249 39.5798 22.485 39.4207 23.8636 37.8784C24.6992 36.9436 25.41 36.116 25.4432 36.0392C25.5901 35.6994 25.1959 35.3469 24.8248 35.4862ZM26.7191 37.2062C26.1806 37.4524 25.8209 38.0839 25.9082 38.6297C25.9984 39.1941 26.4757 39.6628 27.0799 39.7804C27.3106 39.8253 28.9687 39.8401 32.5028 39.8287L37.5935 39.8124L37.867 39.6756C38.3946 39.4117 38.6835 38.9785 38.6858 38.4479C38.6883 37.9043 38.3656 37.4257 37.8435 37.1986C37.6061 37.0952 37.3259 37.0898 32.2813 37.0908C27.1422 37.0918 26.9609 37.0956 26.7191 37.2062ZM37.5963 38.1102C37.795 38.2964 37.796 38.554 37.599 38.7689L37.4482 38.9333L32.4123 38.949C28.0979 38.9625 27.345 38.9523 27.1567 38.8786C26.7961 38.7373 26.7201 38.3463 27.0019 38.0821C27.1228 37.9687 27.2308 37.9663 32.2841 37.9663H37.443L37.5963 38.1102Z" fill="white"/>
<defs>
<linearGradient id="paint0_linear_433_151" x1="30.6898" y1="-10.1064" x2="34.4913" y2="68.4698" gradientUnits="userSpaceOnUse">
<stop stop-color="#9C2CF3"/>
<stop offset="1" stop-color="#3A49F9"/>
</linearGradient>
</defs>
</svg>
